<svg xmlns="http://www.w3.org/2000/svg" xmlns:xlink="http://www.w3.org/1999/xlink" viewBox="0 0 52 52"><defs><style>.cls-1{fill:url(#名称未設定グラデーション_65);}.cls-2{fill:#603813;}.cls-3{fill:#fff;}.cls-4{fill:#8c6239;}</style><radialGradient id="名称未設定グラデーション_65" cx="26" cy="26" r="26" gradientUnits="userSpaceOnUse"><stop offset="0.6" stop-color="#d6931e"/><stop offset="0.69" stop-color="#e2ac1f"/><stop offset="0.72" stop-color="#e7ae0f"/><stop offset="0.76" stop-color="#ebb004"/><stop offset="0.8" stop-color="#ecb000"/><stop offset="0.82" stop-color="#f5e13f"/><stop offset="0.88" stop-color="#fff"/><stop offset="1" stop-color="#fff"/></radialGradient></defs><title>goldern_salmon_roe</title><g id="レイヤー_2" data-name="レイヤー 2"><g id="レイヤー_1-2" data-name="レイヤー 1"><circle class="cls-1" cx="26" cy="26" r="26"/><path class="cls-2" d="M23.55,12.91a9.07,9.07,0,0,0-10.74,8.25l-.47,5.29c-.49,5.48,2.68,7.22,7,3.87l11.32-8.7c4.36-3.35,3.5-6.86-1.92-7.8Z"/><circle class="cls-3" cx="19.32" cy="20.4" r="4.88"/><circle class="cls-4" cx="19.86" cy="20.94" r="2.89"/><circle cx="19.41" cy="20.49" r="1.9"/><path class="cls-2" d="M40.37,36.25c-.62.89-3.81.32-7.07-1.26L31,33.57l-2.41-1.51c-3.93-3.43-6.58-6.8-5.88-7.5s4.51,1.37,8.49,4.58l1.93,1.14,2.49,1.47C38.87,33.34,41,35.36,40.37,36.25Z"/><path class="cls-2" d="M22,35.75c0-.72,1.07-3.52,5.06-6.86a18.41,18.41,0,0,1,10.11-4c.67,0,1.24,0,1.44.36.53.92-2,3.19-6.14,6.86,0,0-5.92,5.25-9,5.06a2.21,2.21,0,0,1-1.08-.36C22.34,36.93,22,36.26,22,35.75Z"/><path class="cls-2" d="M30.33,37.19a2.89,2.89,0,0,1,.72-1.44c.36-.36,2.07-.78,3.61-1.81,1.08-.72,1.81-1.88,5.06-4,.84-.54,1.57-.94,1.81-.72s.06.6-.36,1.44a15,15,0,0,1-2.89,4c-2.74,2.52-5.62,3.93-6.86,3.61-.25-.06-.95-.24-1.08-.72A.76.76,0,0,1,30.33,37.19Z"/><path class="cls-2" d="M36,39.07a2.89,2.89,0,0,1,.5-1.53c.3-.41,1.93-1.07,3.31-2.32,1-.87,1.51-2.13,4.42-4.67.75-.66,1.41-1.16,1.68-1s.15.58-.15,1.48a15,15,0,0,1-2.27,4.35c-2.34,2.9-5,4.71-6.26,4.58-.25,0-1-.1-1.18-.56A.76.76,0,0,1,36,39.07Z"/></g></g></svg>